<svg width="5631" height="73" viewBox="0 0 5631 73" fill="none" xmlns="http://www.w3.org/2000/svg">
<path d="M28.4712 58.8854C19.3491 58.8854 12.4539 56.4439 7.78551 51.5609C3.17081 46.6242 0.863466 39.3802 0.863466 29.8289C0.863466 20.2775 3.19764 13.0604 7.866 8.17738C12.5344 3.24073 19.4027 0.772401 28.4712 0.772401C36.52 0.772401 42.7713 2.73096 47.2251 6.64809C51.7324 10.5116 54.1739 16.1189 54.5496 23.4703H41.4299C41.1616 19.2312 39.9811 16.1189 37.8884 14.1336C35.7956 12.0945 32.6566 11.075 28.4712 11.075C23.5882 11.075 19.9662 12.6043 17.6052 15.6628C15.2978 18.7214 14.1441 23.4434 14.1441 29.8289C14.1441 36.2143 15.2978 40.9364 17.6052 43.9949C19.9662 47.0535 23.5882 48.5828 28.4712 48.5828C32.6566 48.5828 35.8225 47.5364 37.9688 45.4437C40.1689 43.351 41.3494 40.212 41.5104 36.0265H54.63C54.4691 43.4315 52.1349 49.0926 47.6275 53.0097C43.1738 56.9268 36.7883 58.8854 28.4712 58.8854ZM108.222 58H65.2414V1.65778H107.337V12.0408H78.1196V24.1947H106.613V34.3363H78.1196V47.6169H108.222V58ZM131.962 58H119.084V1.65778H149.67C155.143 1.65778 159.489 3.42853 162.709 6.97005C165.982 10.4579 167.619 15.1531 167.619 21.0556C167.619 26.9045 165.902 31.546 162.468 34.9802C159.087 38.4144 154.526 40.1315 148.784 40.1315H131.962V58ZM154.419 21.0556C154.419 18.0507 153.721 15.7702 152.326 14.214C150.984 12.6043 148.999 11.7994 146.37 11.7994H131.962V29.9899H146.37C148.945 29.9899 150.931 29.2386 152.326 27.7362C153.721 26.1801 154.419 23.9532 154.419 21.0556ZM190.285 58H177.407V1.65778H217.812V12.0408H190.285V58ZM277.492 58H264.695V15.0189L242.56 58H226.141V1.65778H238.938V44.7998L261.073 1.65778H277.492V58ZM335.148 58H292.167V1.65778H334.262V12.0408H305.045V24.1947H333.538V34.3363H305.045V47.6169H335.148V58ZM358.887 58H346.009V1.65778H358.887V23.8727H383.759V1.65778H396.637V58H383.759V34.2558H358.887V58ZM424.127 58H411.249V1.65778H424.127V23.7922H435.557L448.355 1.65778H462.521L446.825 28.1386L462.843 58H448.596L435.959 34.4168H424.127V58ZM523.726 29.8289C523.726 39.3802 521.312 46.6242 516.482 51.5609C511.653 56.4439 504.57 58.8854 495.233 58.8854C485.896 58.8854 478.813 56.4439 473.984 51.5609C469.155 46.6242 466.74 39.3802 466.74 29.8289C466.74 20.3312 469.155 13.114 473.984 8.17738C478.813 3.24073 485.896 0.772401 495.233 0.772401C504.57 0.772401 511.653 3.24073 516.482 8.17738C521.312 13.114 523.726 20.3312 523.726 29.8289ZM480.021 29.8289C480.021 36.2143 481.255 40.9364 483.723 43.9949C486.245 47.0535 490.082 48.5828 495.233 48.5828C500.438 48.5828 504.275 47.0535 506.743 43.9949C509.265 40.9364 510.526 36.2143 510.526 29.8289C510.526 23.4434 509.265 18.7214 506.743 15.6628C504.275 12.6043 500.438 11.075 495.233 11.075C490.082 11.075 486.245 12.6043 483.723 15.6628C481.255 18.7214 480.021 23.4434 480.021 29.8289ZM603.3 58H590.502V15.0189L568.367 58H551.948V1.65778H564.745V44.7998L586.88 1.65778H603.3V58ZM648.398 58H617.974V1.65778H647.513C653.04 1.65778 657.252 2.86511 660.15 5.27978C663.047 7.69445 664.496 11.236 664.496 15.9043C664.496 19.1239 663.745 21.8337 662.243 24.0337C660.794 26.1801 658.594 27.763 655.642 28.7825C659.291 29.6411 662.001 31.224 663.772 33.5314C665.596 35.7851 666.508 38.7632 666.508 42.4656C666.508 47.5096 664.952 51.3731 661.84 54.056C658.782 56.6853 654.301 58 648.398 58ZM651.94 18.158C651.94 16.0116 651.403 14.375 650.33 13.2482C649.311 12.0677 647.808 11.4774 645.823 11.4774H630.53V24.6776H646.064C647.996 24.6776 649.445 24.1142 650.411 22.9873C651.43 21.8605 651.94 20.2507 651.94 18.158ZM653.308 41.5803C653.308 39.2729 652.745 37.529 651.618 36.3485C650.545 35.1143 648.989 34.4972 646.95 34.4972H630.53V48.1804H646.789C648.881 48.1804 650.491 47.6169 651.618 46.4901C652.745 45.3632 653.308 43.7266 653.308 41.5803ZM728.582 58H715.382L711.358 46.2486H687.05L683.026 58H670.711L690.672 1.65778H708.621L728.582 58ZM699.284 10.753L690.672 35.8656H707.816L699.284 10.753ZM749.149 58H736.27V1.65778H749.149V23.8727H774.02V1.65778H786.898V58H774.02V34.2558H749.149V58ZM799.498 45.6047H812.779V63.6342C812.779 66.3172 812.027 68.3831 810.525 69.8319C809.076 71.3343 807.01 72.0856 804.327 72.0856H797.969V65.244H803.523C804.113 65.244 804.542 65.1099 804.81 64.8416C805.079 64.5733 805.213 64.144 805.213 63.5537V58H799.498V45.6047ZM872.728 58H842.384V1.65778H885.687V12.0408H855.02V23.0678H872.647C878.013 23.0678 882.145 24.5703 885.043 27.5752C887.94 30.5801 889.389 34.846 889.389 40.3729C889.389 45.9535 887.94 50.2999 885.043 53.4121C882.145 56.4707 878.04 58 872.728 58ZM876.833 40.4534C876.833 38.0924 876.243 36.2948 875.062 35.0607C873.935 33.8265 872.245 33.2094 869.991 33.2094H855.02V47.8584H869.991C872.245 47.8584 873.935 47.2413 875.062 46.0072C876.243 44.7193 876.833 42.8681 876.833 40.4534ZM896.385 58V47.0535L909.585 38.0388C916.883 33.2094 921.685 29.5606 923.992 27.0923C926.3 24.6239 927.453 21.941 927.453 19.0434C927.453 16.3068 926.648 14.2677 925.039 12.9262C923.429 11.5311 920.987 10.8335 917.714 10.8335C914.173 10.8335 911.517 11.5847 909.746 13.0872C907.975 14.5897 907.09 16.8165 907.09 19.7678V20.6532H894.775V19.6068C894.775 13.436 896.707 8.76763 900.57 5.60173C904.487 2.38218 910.175 0.772401 917.634 0.772401C925.253 0.772401 930.941 2.2212 934.697 5.1188C938.454 8.0164 940.332 12.4165 940.332 18.319C940.332 22.8264 938.883 26.8508 935.985 30.3923C933.141 33.9338 928.178 37.9046 921.095 42.3047L912.724 47.6169H940.654V58H896.385ZM982.64 28.9435C986.182 29.9094 988.811 31.4923 990.528 33.6924C992.246 35.8387 993.104 38.6827 993.104 42.2242C993.104 47.7511 991.065 51.9097 986.987 54.7C982.962 57.4902 976.979 58.8854 969.038 58.8854C960.935 58.8854 955.006 57.4366 951.25 54.539C947.547 51.5877 945.696 46.8925 945.696 40.4534H957.93C957.93 43.4047 958.789 45.5511 960.506 46.8925C962.277 48.1804 965.121 48.8243 969.038 48.8243C972.901 48.8243 975.772 48.234 977.65 47.0535C979.528 45.873 980.467 44.0486 980.467 41.5803C980.467 39.2193 979.636 37.4485 977.972 36.268C976.309 35.0875 973.787 34.4972 970.406 34.4972H962.518V24.5971H970.245C973.304 24.5971 975.611 24.0337 977.167 22.9068C978.777 21.7263 979.582 20.0361 979.582 17.836C979.582 15.475 978.723 13.7311 977.006 12.6043C975.343 11.4238 972.794 10.8335 969.36 10.8335C965.657 10.8335 962.921 11.5043 961.15 12.8457C959.379 14.1872 958.494 16.2531 958.494 19.0434H946.501C946.501 13.0335 948.433 8.49933 952.296 5.44075C956.16 2.32852 961.848 0.772401 969.36 0.772401C977.033 0.772401 982.748 2.08705 986.504 4.71635C990.26 7.292 992.138 11.236 992.138 16.5482C992.138 19.4458 991.333 21.941 989.724 24.0337C988.167 26.0727 985.806 27.7093 982.64 28.9435ZM1009.62 72.488H997.706V47.6169H1002.78C1005.14 44.8803 1006.69 41.2851 1007.45 36.8314C1008.25 32.324 1008.68 24.463 1008.73 13.2482L1008.81 1.65778H1050.51V47.6169H1057.11V72.488H1045.19V58H1009.62V72.488ZM1018.31 39.4876C1017.88 41.0973 1017.4 42.5461 1016.86 43.834C1016.33 45.1218 1015.66 46.3828 1014.85 47.6169H1038.51V12.0408H1020.32V13.1677C1020.27 20.5727 1020.08 26.1801 1019.76 29.9899C1019.49 33.7997 1019.01 36.9656 1018.31 39.4876ZM1100.44 28.9435C1103.98 29.963 1106.58 31.546 1108.25 33.6924C1109.96 35.8387 1110.82 38.6827 1110.82 42.2242C1110.82 47.7511 1108.73 51.9097 1104.54 54.7C1100.41 57.4902 1094.24 58.8854 1086.03 58.8854C1077.61 58.8854 1071.44 57.4366 1067.52 54.539C1063.66 51.5877 1061.72 46.8925 1061.72 40.4534H1074.04C1074.04 43.6193 1074.95 45.8193 1076.78 47.0535C1078.6 48.2877 1081.69 48.9048 1086.03 48.9048C1090.32 48.9048 1093.44 48.3413 1095.37 47.2145C1097.3 46.034 1098.27 44.1559 1098.27 41.5803C1098.27 39.1656 1097.46 37.3948 1095.85 36.268C1094.24 35.0875 1091.72 34.4972 1088.29 34.4972H1078.31V24.5971H1088.12C1091.13 24.5971 1093.38 24.0337 1094.89 22.9068C1096.44 21.7263 1097.22 20.0092 1097.22 17.7556C1097.22 15.2872 1096.36 13.5165 1094.64 12.4433C1092.98 11.3701 1090.22 10.8335 1086.35 10.8335C1082.17 10.8335 1079.14 11.4774 1077.26 12.7652C1075.43 13.9994 1074.52 16.0921 1074.52 19.0434H1062.53C1062.53 12.8726 1064.49 8.2847 1068.41 5.27978C1072.38 2.27486 1078.36 0.772401 1086.35 0.772401C1094.24 0.772401 1100.12 2.08705 1103.98 4.71635C1107.84 7.292 1109.78 11.2091 1109.78 16.4677C1109.78 19.5263 1109 22.102 1107.44 24.1947C1105.94 26.2337 1103.61 27.8167 1100.44 28.9435ZM1168.82 29.8289C1168.82 39.3266 1166.67 46.5437 1162.38 51.4804C1158.14 56.4171 1151.92 58.8854 1143.71 58.8854C1135.5 58.8854 1129.25 56.4171 1124.95 51.4804C1120.66 46.5437 1118.51 39.3266 1118.51 29.8289C1118.51 20.3312 1120.66 13.114 1124.95 8.17738C1129.25 3.24073 1135.5 0.772401 1143.71 0.772401C1151.92 0.772401 1158.14 3.24073 1162.38 8.17738C1166.67 13.114 1168.82 20.3312 1168.82 29.8289ZM1131.39 29.8289C1131.39 36.268 1132.38 41.0168 1134.37 44.0754C1136.35 47.0803 1139.47 48.5828 1143.71 48.5828C1147.95 48.5828 1151.03 47.0803 1152.96 44.0754C1154.95 41.0705 1155.94 36.3217 1155.94 29.8289C1155.94 23.3361 1154.95 18.5873 1152.96 15.5824C1151.03 12.5774 1147.95 11.075 1143.71 11.075C1139.47 11.075 1136.35 12.6043 1134.37 15.6628C1132.38 18.6678 1131.39 23.3898 1131.39 29.8289ZM1224.41 42.8681C1224.41 48.1267 1222.37 52.1243 1218.3 54.8609C1214.22 57.5439 1208.21 58.8854 1200.27 58.8854C1192.38 58.8854 1186.4 57.5439 1182.32 54.8609C1178.29 52.1243 1176.28 48.1267 1176.28 42.8681C1176.28 39.4339 1177.22 36.5363 1179.1 34.1753C1180.98 31.8143 1183.77 30.0704 1187.47 28.9435C1184.3 27.8167 1181.91 26.2069 1180.3 24.1142C1178.75 21.9678 1177.97 19.3653 1177.97 16.3068C1177.97 11.2091 1179.85 7.34566 1183.6 4.71635C1187.41 2.08705 1192.97 0.772401 1200.27 0.772401C1207.62 0.772401 1213.2 2.08705 1217.01 4.71635C1220.82 7.34566 1222.72 11.2091 1222.72 16.3068C1222.72 19.3653 1221.92 21.9678 1220.31 24.1142C1218.7 26.2069 1216.31 27.8167 1213.14 28.9435C1216.85 30.0704 1219.64 31.8143 1221.52 34.1753C1223.45 36.5363 1224.41 39.4339 1224.41 42.8681ZM1210.49 17.2726C1210.49 14.9116 1209.63 13.1409 1207.91 11.9604C1206.2 10.7799 1203.65 10.1896 1200.27 10.1896C1196.94 10.1896 1194.42 10.8067 1192.7 12.0408C1191.04 13.2213 1190.2 14.9653 1190.2 17.2726C1190.2 19.6336 1191.06 21.4312 1192.78 22.6654C1194.5 23.8459 1196.99 24.4361 1200.27 24.4361C1203.54 24.4361 1206.06 23.8191 1207.83 22.5849C1209.6 21.3507 1210.49 19.58 1210.49 17.2726ZM1189.08 41.7412C1189.08 44.3169 1190.02 46.2486 1191.9 47.5364C1193.77 48.8243 1196.56 49.4682 1200.27 49.4682C1204.02 49.4682 1206.84 48.8243 1208.72 47.5364C1210.6 46.2486 1211.53 44.3169 1211.53 41.7412C1211.53 39.2729 1210.57 37.368 1208.64 36.0265C1206.71 34.6851 1203.91 34.0143 1200.27 34.0143C1196.72 34.0143 1193.96 34.6851 1191.98 36.0265C1190.04 37.368 1189.08 39.2729 1189.08 41.7412ZM1265.25 58H1252.37V1.65778H1265.25V23.8727H1290.12V1.65778H1303V58H1290.12V34.2558H1265.25V58ZM1338.7 58.8854C1330.06 58.8854 1323.73 57.2756 1319.71 54.056C1315.68 50.8365 1313.67 45.7389 1313.67 38.7632H1326.47C1326.52 42.573 1327.49 45.2828 1329.37 46.8925C1331.3 48.5023 1334.41 49.3072 1338.7 49.3072C1342.73 49.3072 1345.65 48.7706 1347.48 47.6974C1349.3 46.6242 1350.21 44.8535 1350.21 42.3852C1350.21 40.2924 1349.43 38.7363 1347.88 37.7168C1346.38 36.6973 1343.64 35.8924 1339.67 35.3021L1333.31 34.3363C1326.39 33.2631 1321.48 31.4923 1318.58 29.024C1315.74 26.5557 1314.31 22.7995 1314.31 17.7556C1314.31 12.2823 1316.33 8.09689 1320.35 5.19929C1324.43 2.24803 1330.33 0.772401 1338.06 0.772401C1346.48 0.772401 1352.57 2.24803 1356.33 5.19929C1360.14 8.15055 1362.04 12.8994 1362.04 19.4458H1349.41C1349.3 16.1189 1348.36 13.7579 1346.59 12.3628C1344.87 10.9677 1342.03 10.2701 1338.06 10.2701C1334.25 10.2701 1331.46 10.8067 1329.69 11.8799C1327.97 12.8994 1327.11 14.5628 1327.11 16.8702C1327.11 18.9092 1327.78 20.3849 1329.12 21.2971C1330.47 22.1556 1333.34 22.9068 1337.74 23.5508L1343.93 24.5166C1350.96 25.5898 1355.9 27.3874 1358.74 29.9094C1361.64 32.3777 1363.09 36.0534 1363.09 40.9364C1363.09 46.7852 1361.02 51.2389 1356.89 54.2975C1352.76 57.3561 1346.7 58.8854 1338.7 58.8854ZM1416.8 58H1373.81V1.65778H1415.91V12.0408H1386.69V24.1947H1415.19V34.3363H1386.69V47.6169H1416.8V58ZM1495.58 58H1482.38L1478.36 46.2486H1454.05L1450.03 58H1437.71L1457.67 1.65778H1475.62L1495.58 58ZM1466.29 10.753L1457.67 35.8656H1474.82L1466.29 10.753ZM1516.15 58H1503.27V1.65778H1535.71C1540.97 1.65778 1545.1 3.2139 1548.11 6.32613C1551.11 9.38471 1552.61 13.6238 1552.61 19.0434C1552.61 22.2629 1552 25.08 1550.76 27.4947C1549.53 29.8557 1547.76 31.707 1545.45 33.0484L1552.77 58H1539.41L1533.46 36.9924H1516.15V58ZM1539.41 19.0434C1539.41 16.5751 1538.88 14.7238 1537.8 13.4896C1536.78 12.2018 1535.25 11.5579 1533.21 11.5579H1516.15V26.6093H1533.38C1535.36 26.6093 1536.86 25.9654 1537.88 24.6776C1538.9 23.3898 1539.41 21.5117 1539.41 19.0434ZM1589.3 58H1576.42V12.0408H1557.91V1.65778H1607.81V12.0408H1589.3V58ZM1683.99 58H1670.79L1666.77 46.2486H1642.46L1638.44 58H1626.12L1646.08 1.65778H1664.03L1683.99 58ZM1654.7 10.753L1646.08 35.8656H1663.23L1654.7 10.753ZM1703.6 58H1691.68V1.65778H1707.3L1729.51 43.673V1.65778H1741.42V58H1725.89L1703.6 15.8238V58ZM1780.37 58H1756.06V1.65778H1780.53C1789.33 1.65778 1795.95 4.04562 1800.41 8.82129C1804.86 13.5433 1807.09 20.6263 1807.09 30.0704C1807.09 39.4071 1804.86 46.4096 1800.41 51.078C1795.95 55.6927 1789.27 58 1780.37 58ZM1768.94 47.6169H1780.69C1785.41 47.6169 1788.79 46.2486 1790.83 43.512C1792.92 40.7217 1793.97 36.2412 1793.97 30.0704C1793.97 23.7386 1792.92 19.1507 1790.83 16.3068C1788.79 13.4628 1785.41 12.0408 1780.69 12.0408H1768.94V47.6169ZM1859.68 58H1835.37V1.65778H1859.84C1868.64 1.65778 1875.26 4.04562 1879.72 8.82129C1884.17 13.5433 1886.4 20.6263 1886.4 30.0704C1886.4 39.4071 1884.17 46.4096 1879.72 51.078C1875.26 55.6927 1868.58 58 1859.68 58ZM1848.25 47.6169H1860C1864.72 47.6169 1868.1 46.2486 1870.14 43.512C1872.23 40.7217 1873.28 36.2412 1873.28 30.0704C1873.28 23.7386 1872.23 19.1507 1870.14 16.3068C1868.1 13.4628 1864.72 12.0408 1860 12.0408H1848.25V47.6169ZM1940.68 58H1897.7V1.65778H1939.8V12.0408H1910.58V24.1947H1939.07V34.3363H1910.58V47.6169H1940.68V58ZM1972.63 58.8854C1963.99 58.8854 1957.66 57.2756 1953.64 54.056C1949.61 50.8365 1947.6 45.7389 1947.6 38.7632H1960.4C1960.45 42.573 1961.42 45.2828 1963.29 46.8925C1965.23 48.5023 1968.34 49.3072 1972.63 49.3072C1976.65 49.3072 1979.58 48.7706 1981.4 47.6974C1983.23 46.6242 1984.14 44.8535 1984.14 42.3852C1984.14 40.2924 1983.36 38.7363 1981.81 37.7168C1980.3 36.6973 1977.57 35.8924 1973.6 35.3021L1967.24 34.3363C1960.32 33.2631 1955.41 31.4923 1952.51 29.024C1949.66 26.5557 1948.24 22.7995 1948.24 17.7556C1948.24 12.2823 1950.25 8.09689 1954.28 5.19929C1958.36 2.24803 1964.26 0.772401 1971.99 0.772401C1980.41 0.772401 1986.5 2.24803 1990.26 5.19929C1994.07 8.15055 1995.97 12.8994 1995.97 19.4458H1983.34C1983.23 16.1189 1982.29 13.7579 1980.52 12.3628C1978.8 10.9677 1975.96 10.2701 1971.99 10.2701C1968.18 10.2701 1965.39 10.8067 1963.62 11.8799C1961.9 12.8994 1961.04 14.5628 1961.04 16.8702C1961.04 18.9092 1961.71 20.3849 1963.05 21.2971C1964.39 22.1556 1967.26 22.9068 1971.66 23.5508L1977.86 24.5166C1984.89 25.5898 1989.83 27.3874 1992.67 29.9094C1995.57 32.3777 1997.02 36.0534 1997.02 40.9364C1997.02 46.7852 1994.95 51.2389 1990.82 54.2975C1986.69 57.3561 1980.63 58.8854 1972.63 58.8854ZM2020.62 58H2007.74V1.65778H2020.62V58ZM2060.45 58.8854C2051.11 58.8854 2044 56.4171 2039.12 51.4804C2034.23 46.5437 2031.79 39.3266 2031.79 29.8289C2031.79 20.3312 2034.21 13.114 2039.04 8.17738C2043.92 3.24073 2051.03 0.772401 2060.37 0.772401C2068.42 0.772401 2074.67 2.56999 2079.12 6.16515C2083.57 9.76033 2086.02 14.9653 2086.44 21.78H2073.49C2073.22 18.0775 2072.01 15.3677 2069.86 13.6506C2067.77 11.9335 2064.61 11.075 2060.37 11.075C2055.22 11.075 2051.38 12.6311 2048.86 15.7433C2046.33 18.8019 2045.07 23.4971 2045.07 29.8289C2045.07 36.268 2046.31 41.0168 2048.78 44.0754C2051.3 47.0803 2055.19 48.5828 2060.45 48.5828C2064.9 48.5828 2068.28 47.7779 2070.59 46.1681C2072.95 44.5047 2074.13 42.09 2074.13 38.9241V37.5558H2057.71V27.7362H2086.61V36.7509C2086.61 43.673 2084.3 49.0926 2079.68 53.0097C2075.12 56.9268 2068.71 58.8854 2060.45 58.8854ZM2109.97 58H2098.06V1.65778H2113.67L2135.89 43.673V1.65778H2147.8V58H2132.27L2109.97 15.8238V58ZM2200.5 58.8854C2191.86 58.8854 2185.53 57.2756 2181.5 54.056C2177.48 50.8365 2175.47 45.7389 2175.47 38.7632H2188.26C2188.32 42.573 2189.28 45.2828 2191.16 46.8925C2193.09 48.5023 2196.21 49.3072 2200.5 49.3072C2204.52 49.3072 2207.45 48.7706 2209.27 47.6974C2211.1 46.6242 2212.01 44.8535 2212.01 42.3852C2212.01 40.2924 2211.23 38.7363 2209.67 37.7168C2208.17 36.6973 2205.44 35.8924 2201.46 35.3021L2195.11 34.3363C2188.18 33.2631 2183.27 31.4923 2180.38 29.024C2177.53 26.5557 2176.11 22.7995 2176.11 17.7556C2176.11 12.2823 2178.12 8.09689 2182.15 5.19929C2186.23 2.24803 2192.13 0.772401 2199.86 0.772401C2208.28 0.772401 2214.37 2.24803 2218.13 5.19929C2221.94 8.15055 2223.84 12.8994 2223.84 19.4458H2211.2C2211.1 16.1189 2210.16 13.7579 2208.39 12.3628C2206.67 10.9677 2203.83 10.2701 2199.86 10.2701C2196.05 10.2701 2193.26 10.8067 2191.48 11.8799C2189.77 12.8994 2188.91 14.5628 2188.91 16.8702C2188.91 18.9092 2189.58 20.3849 2190.92 21.2971C2192.26 22.1556 2195.13 22.9068 2199.53 23.5508L2205.73 24.5166C2212.76 25.5898 2217.7 27.3874 2220.54 29.9094C2223.44 32.3777 2224.89 36.0534 2224.89 40.9364C2224.89 46.7852 2222.82 51.2389 2218.69 54.2975C2214.56 57.3561 2208.49 58.8854 2200.5 58.8854ZM2259.76 58.8854C2250.64 58.8854 2243.74 56.4439 2239.07 51.5609C2234.46 46.6242 2232.15 39.3802 2232.15 29.8289C2232.15 20.2775 2234.48 13.0604 2239.15 8.17738C2243.82 3.24073 2250.69 0.772401 2259.76 0.772401C2267.81 0.772401 2274.06 2.73096 2278.51 6.64809C2283.02 10.5116 2285.46 16.1189 2285.84 23.4703H2272.72C2272.45 19.2312 2271.27 16.1189 2269.18 14.1336C2267.08 12.0945 2263.94 11.075 2259.76 11.075C2254.88 11.075 2251.25 12.6043 2248.89 15.6628C2246.58 18.7214 2245.43 23.4434 2245.43 29.8289C2245.43 36.2143 2246.58 40.9364 2248.89 43.9949C2251.25 47.0535 2254.88 48.5828 2259.76 48.5828C2263.94 48.5828 2267.11 47.5364 2269.26 45.4437C2271.46 43.351 2272.64 40.212 2272.8 36.0265H2285.92C2285.76 43.4315 2283.42 49.0926 2278.91 53.0097C2274.46 56.9268 2268.08 58.8854 2259.76 58.8854ZM2309.41 58H2296.53V1.65778H2309.41V23.8727H2334.28V1.65778H2347.16V58H2334.28V34.2558H2309.41V58ZM2415.29 29.8289C2415.29 39.3802 2412.88 46.6242 2408.05 51.5609C2403.22 56.4439 2396.14 58.8854 2386.8 58.8854C2377.46 58.8854 2370.38 56.4439 2365.55 51.5609C2360.72 46.6242 2358.31 39.3802 2358.31 29.8289C2358.31 20.3312 2360.72 13.114 2365.55 8.17738C2370.38 3.24073 2377.46 0.772401 2386.8 0.772401C2396.14 0.772401 2403.22 3.24073 2408.05 8.17738C2412.88 13.114 2415.29 20.3312 2415.29 29.8289ZM2371.59 29.8289C2371.59 36.2143 2372.82 40.9364 2375.29 43.9949C2377.81 47.0535 2381.65 48.5828 2386.8 48.5828C2392.01 48.5828 2395.84 47.0535 2398.31 43.9949C2400.83 40.9364 2402.09 36.2143 2402.09 29.8289C2402.09 23.4434 2400.83 18.7214 2398.31 15.6628C2395.84 12.6043 2392.01 11.075 2386.8 11.075C2381.65 11.075 2377.81 12.6043 2375.29 15.6628C2372.82 18.7214 2371.59 23.4434 2371.59 29.8289ZM2480.06 29.8289C2480.06 39.3802 2477.65 46.6242 2472.82 51.5609C2467.99 56.4439 2460.91 58.8854 2451.57 58.8854C2442.23 58.8854 2435.15 56.4439 2430.32 51.5609C2425.49 46.6242 2423.08 39.3802 2423.08 29.8289C2423.08 20.3312 2425.49 13.114 2430.32 8.17738C2435.15 3.24073 2442.23 0.772401 2451.57 0.772401C2460.91 0.772401 2467.99 3.24073 2472.82 8.17738C2477.65 13.114 2480.06 20.3312 2480.06 29.8289ZM2436.36 29.8289C2436.36 36.2143 2437.59 40.9364 2440.06 43.9949C2442.58 47.0535 2446.42 48.5828 2451.57 48.5828C2456.77 48.5828 2460.61 47.0535 2463.08 43.9949C2465.6 40.9364 2466.86 36.2143 2466.86 29.8289C2466.86 23.4434 2465.6 18.7214 2463.08 15.6628C2460.61 12.6043 2456.77 11.075 2451.57 11.075C2446.42 11.075 2442.58 12.6043 2440.06 15.6628C2437.59 18.7214 2436.36 23.4434 2436.36 29.8289ZM2532.52 58H2491.31V1.65778H2504.18V47.3755H2532.52V58ZM2581.64 58.8854C2572.51 58.8854 2565.62 56.4439 2560.95 51.5609C2556.33 46.6242 2554.03 39.3802 2554.03 29.8289C2554.03 20.2775 2556.36 13.0604 2561.03 8.17738C2565.7 3.24073 2572.57 0.772401 2581.64 0.772401C2589.68 0.772401 2595.94 2.73096 2600.39 6.64809C2604.9 10.5116 2607.34 16.1189 2607.71 23.4703H2594.59C2594.33 19.2312 2593.15 16.1189 2591.05 14.1336C2588.96 12.0945 2585.82 11.075 2581.64 11.075C2576.75 11.075 2573.13 12.6043 2570.77 15.6628C2568.46 18.7214 2567.31 23.4434 2567.31 29.8289C2567.31 36.2143 2568.46 40.9364 2570.77 43.9949C2573.13 47.0535 2576.75 48.5828 2581.64 48.5828C2585.82 48.5828 2588.99 47.5364 2591.13 45.4437C2593.33 43.351 2594.51 40.212 2594.67 36.0265H2607.79C2607.63 43.4315 2605.3 49.0926 2600.79 53.0097C2596.34 56.9268 2589.95 58.8854 2581.64 58.8854ZM2661.39 58H2618.41V1.65778H2660.5V12.0408H2631.28V24.1947H2659.78V34.3363H2631.28V47.6169H2661.39V58ZM2685.13 58H2672.25V1.65778H2702.83C2708.31 1.65778 2712.65 3.42853 2715.87 6.97005C2719.15 10.4579 2720.78 15.1531 2720.78 21.0556C2720.78 26.9045 2719.07 31.546 2715.63 34.9802C2712.25 38.4144 2707.69 40.1315 2701.95 40.1315H2685.13V58ZM2707.58 21.0556C2707.58 18.0507 2706.89 15.7702 2705.49 14.214C2704.15 12.6043 2702.16 11.7994 2699.53 11.7994H2685.13V29.9899H2699.53C2702.11 29.9899 2704.09 29.2386 2705.49 27.7362C2706.89 26.1801 2707.58 23.9532 2707.58 21.0556ZM2743.45 58H2730.57V1.65778H2770.98V12.0408H2743.45V58ZM2830.66 58H2817.86V15.0189L2795.72 58H2779.3V1.65778H2792.1V44.7998L2814.24 1.65778H2830.66V58ZM2888.31 58H2845.33V1.65778H2887.43V12.0408H2858.21V24.1947H2886.7V34.3363H2858.21V47.6169H2888.31V58ZM2912.05 58H2899.17V1.65778H2912.05V23.8727H2936.92V1.65778H2949.8V58H2936.92V34.2558H2912.05V58ZM2977.29 58H2964.41V1.65778H2977.29V23.7922H2988.72L3001.52 1.65778H3015.68L2999.99 28.1386L3016.01 58H3001.76L2989.12 34.4168H2977.29V58ZM3076.89 29.8289C3076.89 39.3802 3074.48 46.6242 3069.65 51.5609C3064.82 56.4439 3057.73 58.8854 3048.4 58.8854C3039.06 58.8854 3031.98 56.4439 3027.15 51.5609C3022.32 46.6242 3019.9 39.3802 3019.9 29.8289C3019.9 20.3312 3022.32 13.114 3027.15 8.17738C3031.98 3.24073 3039.06 0.772401 3048.4 0.772401C3057.73 0.772401 3064.82 3.24073 3069.65 8.17738C3074.48 13.114 3076.89 20.3312 3076.89 29.8289ZM3033.18 29.8289C3033.18 36.2143 3034.42 40.9364 3036.89 43.9949C3039.41 47.0535 3043.25 48.5828 3048.4 48.5828C3053.6 48.5828 3057.44 47.0535 3059.91 43.9949C3062.43 40.9364 3063.69 36.2143 3063.69 29.8289C3063.69 23.4434 3062.43 18.7214 3059.91 15.6628C3057.44 12.6043 3053.6 11.075 3048.4 11.075C3043.25 11.075 3039.41 12.6043 3036.89 15.6628C3034.42 18.7214 3033.18 23.4434 3033.18 29.8289ZM3156.46 58H3143.67V15.0189L3121.53 58H3105.11V1.65778H3117.91V44.7998L3140.04 1.65778H3156.46V58ZM3201.56 58H3171.14V1.65778H3200.68C3206.2 1.65778 3210.42 2.86511 3213.31 5.27978C3216.21 7.69445 3217.66 11.236 3217.66 15.9043C3217.66 19.1239 3216.91 21.8337 3215.41 24.0337C3213.96 26.1801 3211.76 27.763 3208.81 28.7825C3212.46 29.6411 3215.17 31.224 3216.94 33.5314C3218.76 35.7851 3219.67 38.7632 3219.67 42.4656C3219.67 47.5096 3218.12 51.3731 3215 54.056C3211.95 56.6853 3207.47 58 3201.56 58ZM3205.1 18.158C3205.1 16.0116 3204.57 14.375 3203.49 13.2482C3202.47 12.0677 3200.97 11.4774 3198.99 11.4774H3183.69V24.6776H3199.23C3201.16 24.6776 3202.61 24.1142 3203.57 22.9873C3204.59 21.8605 3205.1 20.2507 3205.1 18.158ZM3206.47 41.5803C3206.47 39.2729 3205.91 37.529 3204.78 36.3485C3203.71 35.1143 3202.15 34.4972 3200.11 34.4972H3183.69V48.1804H3199.95C3202.05 48.1804 3203.66 47.6169 3204.78 46.4901C3205.91 45.3632 3206.47 43.7266 3206.47 41.5803ZM3281.75 58H3268.55L3264.52 46.2486H3240.21L3236.19 58H3223.87L3243.84 1.65778H3261.79L3281.75 58ZM3252.45 10.753L3243.84 35.8656H3260.98L3252.45 10.753ZM3302.31 58H3289.43V1.65778H3302.31V23.8727H3327.18V1.65778H3340.06V58H3327.18V34.2558H3302.31V58ZM3352.66 45.6047H3365.94V63.6342C3365.94 66.3172 3365.19 68.3831 3363.69 69.8319C3362.24 71.3343 3360.17 72.0856 3357.49 72.0856H3351.13V65.244H3356.69C3357.28 65.244 3357.71 65.1099 3357.97 64.8416C3358.24 64.5733 3358.38 64.144 3358.38 63.5537V58H3352.66V45.6047ZM3425.89 58H3395.55V1.65778H3438.85V12.0408H3408.18V23.0678H3425.81C3431.18 23.0678 3435.31 24.5703 3438.21 27.5752C3441.1 30.5801 3442.55 34.846 3442.55 40.3729C3442.55 45.9535 3441.1 50.2999 3438.21 53.4121C3435.31 56.4707 3431.2 58 3425.89 58ZM3430 40.4534C3430 38.0924 3429.41 36.2948 3428.23 35.0607C3427.1 33.8265 3425.41 33.2094 3423.16 33.2094H3408.18V47.8584H3423.16C3425.41 47.8584 3427.1 47.2413 3428.23 46.0072C3429.41 44.7193 3430 42.8681 3430 40.4534ZM3449.55 58V47.0535L3462.75 38.0388C3470.05 33.2094 3474.85 29.5606 3477.16 27.0923C3479.46 24.6239 3480.62 21.941 3480.62 19.0434C3480.62 16.3068 3479.81 14.2677 3478.2 12.9262C3476.59 11.5311 3474.15 10.8335 3470.88 10.8335C3467.34 10.8335 3464.68 11.5847 3462.91 13.0872C3461.14 14.5897 3460.25 16.8165 3460.25 19.7678V20.6532H3447.94V19.6068C3447.94 13.436 3449.87 8.76763 3453.73 5.60173C3457.65 2.38218 3463.34 0.772401 3470.8 0.772401C3478.42 0.772401 3484.11 2.2212 3487.86 5.1188C3491.62 8.0164 3493.5 12.4165 3493.5 18.319C3493.5 22.8264 3492.05 26.8508 3489.15 30.3923C3486.31 33.9338 3481.34 37.9046 3474.26 42.3047L3465.89 47.6169H3493.82V58H3449.55ZM3535.8 28.9435C3539.35 29.9094 3541.98 31.4923 3543.69 33.6924C3545.41 35.8387 3546.27 38.6827 3546.27 42.2242C3546.27 47.7511 3544.23 51.9097 3540.15 54.7C3536.13 57.4902 3530.14 58.8854 3522.2 58.8854C3514.1 58.8854 3508.17 57.4366 3504.41 54.539C3500.71 51.5877 3498.86 46.8925 3498.86 40.4534H3511.09C3511.09 43.4047 3511.95 45.5511 3513.67 46.8925C3515.44 48.1804 3518.28 48.8243 3522.2 48.8243C3526.07 48.8243 3528.94 48.234 3530.81 47.0535C3532.69 45.873 3533.63 44.0486 3533.63 41.5803C3533.63 39.2193 3532.8 37.4485 3531.14 36.268C3529.47 35.0875 3526.95 34.4972 3523.57 34.4972H3515.68V24.5971H3523.41C3526.47 24.5971 3528.78 24.0337 3530.33 22.9068C3531.94 21.7263 3532.75 20.0361 3532.75 17.836C3532.75 15.475 3531.89 13.7311 3530.17 12.6043C3528.51 11.4238 3525.96 10.8335 3522.52 10.8335C3518.82 10.8335 3516.08 11.5043 3514.31 12.8457C3512.54 14.1872 3511.66 16.2531 3511.66 19.0434H3499.66C3499.66 13.0335 3501.6 8.49933 3505.46 5.44075C3509.32 2.32852 3515.01 0.772401 3522.52 0.772401C3530.2 0.772401 3535.91 2.08705 3539.67 4.71635C3543.42 7.292 3545.3 11.236 3545.3 16.5482C3545.3 19.4458 3544.5 21.941 3542.89 24.0337C3541.33 26.0727 3538.97 27.7093 3535.8 28.9435ZM3562.78 72.488H3550.87V47.6169H3555.94C3558.3 44.8803 3559.86 41.2851 3560.61 36.8314C3561.41 32.324 3561.84 24.463 3561.9 13.2482L3561.98 1.65778H3603.67V47.6169H3610.27V72.488H3598.36V58H3562.78V72.488ZM3571.48 39.4876C3571.05 41.0973 3570.56 42.5461 3570.03 43.834C3569.49 45.1218 3568.82 46.3828 3568.01 47.6169H3591.68V12.0408H3573.49V13.1677C3573.43 20.5727 3573.25 26.1801 3572.92 29.9899C3572.66 33.7997 3572.17 36.9656 3571.48 39.4876ZM3653.6 28.9435C3657.15 29.963 3659.75 31.546 3661.41 33.6924C3663.13 35.8387 3663.99 38.6827 3663.99 42.2242C3663.99 47.7511 3661.89 51.9097 3657.71 54.7C3653.58 57.4902 3647.41 58.8854 3639.2 58.8854C3630.77 58.8854 3624.6 57.4366 3620.68 54.539C3616.82 51.5877 3614.89 46.8925 3614.89 40.4534H3627.2C3627.2 43.6193 3628.12 45.8193 3629.94 47.0535C3631.76 48.2877 3634.85 48.9048 3639.2 48.9048C3643.49 48.9048 3646.6 48.3413 3648.53 47.2145C3650.46 46.034 3651.43 44.1559 3651.43 41.5803C3651.43 39.1656 3650.63 37.3948 3649.02 36.268C3647.41 35.0875 3644.88 34.4972 3641.45 34.4972H3631.47V24.5971H3641.29C3644.29 24.5971 3646.55 24.0337 3648.05 22.9068C3649.61 21.7263 3650.38 20.0092 3650.38 17.7556C3650.38 15.2872 3649.53 13.5165 3647.81 12.4433C3646.15 11.3701 3643.38 10.8335 3639.52 10.8335C3635.33 10.8335 3632.3 11.4774 3630.42 12.7652C3628.6 13.9994 3627.69 16.0921 3627.69 19.0434H3615.69C3615.69 12.8726 3617.65 8.2847 3621.57 5.27978C3625.54 2.27486 3631.52 0.772401 3639.52 0.772401C3647.41 0.772401 3653.28 2.08705 3657.15 4.71635C3661.01 7.292 3662.94 11.2091 3662.94 16.4677C3662.94 19.5263 3662.16 22.102 3660.61 24.1947C3659.1 26.2337 3656.77 27.8167 3653.6 28.9435ZM3721.98 29.8289C3721.98 39.3266 3719.84 46.5437 3715.54 51.4804C3711.3 56.4171 3705.08 58.8854 3696.87 58.8854C3688.66 58.8854 3682.41 56.4171 3678.12 51.4804C3673.82 46.5437 3671.68 39.3266 3671.68 29.8289C3671.68 20.3312 3673.82 13.114 3678.12 8.17738C3682.41 3.24073 3688.66 0.772401 3696.87 0.772401C3705.08 0.772401 3711.3 3.24073 3715.54 8.17738C3719.84 13.114 3721.98 20.3312 3721.98 29.8289ZM3684.56 29.8289C3684.56 36.268 3685.55 41.0168 3687.53 44.0754C3689.52 47.0803 3692.63 48.5828 3696.87 48.5828C3701.11 48.5828 3704.19 47.0803 3706.13 44.0754C3708.11 41.0705 3709.1 36.3217 3709.1 29.8289C3709.1 23.3361 3708.11 18.5873 3706.13 15.5824C3704.19 12.5774 3701.11 11.075 3696.87 11.075C3692.63 11.075 3689.52 12.6043 3687.53 15.6628C3685.55 18.6678 3684.56 23.3898 3684.56 29.8289ZM3777.58 42.8681C3777.58 48.1267 3775.54 52.1243 3771.46 54.8609C3767.38 57.5439 3761.37 58.8854 3753.43 58.8854C3745.54 58.8854 3739.56 57.5439 3735.48 54.8609C3731.46 52.1243 3729.44 48.1267 3729.44 42.8681C3729.44 39.4339 3730.38 36.5363 3732.26 34.1753C3734.14 31.8143 3736.93 30.0704 3740.63 28.9435C3737.47 27.8167 3735.08 26.2069 3733.47 24.1142C3731.91 21.9678 3731.13 19.3653 3731.13 16.3068C3731.13 11.2091 3733.01 7.34566 3736.77 4.71635C3740.58 2.08705 3746.13 0.772401 3753.43 0.772401C3760.78 0.772401 3766.36 2.08705 3770.17 4.71635C3773.98 7.34566 3775.89 11.2091 3775.89 16.3068C3775.89 19.3653 3775.08 21.9678 3773.47 24.1142C3771.86 26.2069 3769.47 27.8167 3766.31 28.9435C3770.01 30.0704 3772.8 31.8143 3774.68 34.1753C3776.61 36.5363 3777.58 39.4339 3777.58 42.8681ZM3763.65 17.2726C3763.65 14.9116 3762.79 13.1409 3761.08 11.9604C3759.36 10.7799 3756.81 10.1896 3753.43 10.1896C3750.1 10.1896 3747.58 10.8067 3745.86 12.0408C3744.2 13.2213 3743.37 14.9653 3743.37 17.2726C3743.37 19.6336 3744.23 21.4312 3745.94 22.6654C3747.66 23.8459 3750.16 24.4361 3753.43 24.4361C3756.7 24.4361 3759.23 23.8191 3761 22.5849C3762.77 21.3507 3763.65 19.58 3763.65 17.2726ZM3742.24 41.7412C3742.24 44.3169 3743.18 46.2486 3745.06 47.5364C3746.94 48.8243 3749.73 49.4682 3753.43 49.4682C3757.19 49.4682 3760 48.8243 3761.88 47.5364C3763.76 46.2486 3764.7 44.3169 3764.7 41.7412C3764.7 39.2729 3763.73 37.368 3761.8 36.0265C3759.87 34.6851 3757.08 34.0143 3753.43 34.0143C3749.89 34.0143 3747.13 34.6851 3745.14 36.0265C3743.21 37.368 3742.24 39.2729 3742.24 41.7412ZM3818.42 58H3805.54V1.65778H3818.42V23.8727H3843.29V1.65778H3856.17V58H3843.29V34.2558H3818.42V58ZM3891.87 58.8854C3883.23 58.8854 3876.9 57.2756 3872.87 54.056C3868.85 50.8365 3866.83 45.7389 3866.83 38.7632H3879.63C3879.69 42.573 3880.65 45.2828 3882.53 46.8925C3884.46 48.5023 3887.57 49.3072 3891.87 49.3072C3895.89 49.3072 3898.81 48.7706 3900.64 47.6974C3902.46 46.6242 3903.38 44.8535 3903.38 42.3852C3903.38 40.2924 3902.6 38.7363 3901.04 37.7168C3899.54 36.6973 3896.8 35.8924 3892.83 35.3021L3886.47 34.3363C3879.55 33.2631 3874.64 31.4923 3871.74 29.024C3868.9 26.5557 3867.48 22.7995 3867.48 17.7556C3867.48 12.2823 3869.49 8.09689 3873.51 5.19929C3877.59 2.24803 3883.5 0.772401 3891.22 0.772401C3899.65 0.772401 3905.74 2.24803 3909.49 5.19929C3913.3 8.15055 3915.21 12.8994 3915.21 19.4458H3902.57C3902.46 16.1189 3901.52 13.7579 3899.75 12.3628C3898.04 10.9677 3895.19 10.2701 3891.22 10.2701C3887.41 10.2701 3884.62 10.8067 3882.85 11.8799C3881.13 12.8994 3880.28 14.5628 3880.28 16.8702C3880.28 18.9092 3880.95 20.3849 3882.29 21.2971C3883.63 22.1556 3886.5 22.9068 3890.9 23.5508L3897.1 24.5166C3904.13 25.5898 3909.06 27.3874 3911.91 29.9094C3914.81 32.3777 3916.25 36.0534 3916.25 40.9364C3916.25 46.7852 3914.19 51.2389 3910.06 54.2975C3905.92 57.3561 3899.86 58.8854 3891.87 58.8854ZM3969.96 58H3926.98V1.65778H3969.07V12.0408H3939.86V24.1947H3968.35V34.3363H3939.86V47.6169H3969.96V58ZM4048.75 58H4035.55L4031.52 46.2486H4007.22L4003.19 58H3990.88L4010.84 1.65778H4028.79L4048.75 58ZM4019.45 10.753L4010.84 35.8656H4027.98L4019.45 10.753ZM4069.32 58H4056.44V1.65778H4088.87C4094.13 1.65778 4098.26 3.2139 4101.27 6.32613C4104.27 9.38471 4105.78 13.6238 4105.78 19.0434C4105.78 22.2629 4105.16 25.08 4103.93 27.4947C4102.69 29.8557 4100.92 31.707 4098.61 33.0484L4105.94 58H4092.58L4086.62 36.9924H4069.32V58ZM4092.58 19.0434C4092.58 16.5751 4092.04 14.7238 4090.97 13.4896C4089.95 12.2018 4088.42 11.5579 4086.38 11.5579H4069.32V26.6093H4086.54C4088.53 26.6093 4090.03 25.9654 4091.05 24.6776C4092.07 23.3898 4092.58 21.5117 4092.58 19.0434ZM4142.46 58H4129.59V12.0408H4111.07V1.65778H4160.98V12.0408H4142.46V58ZM4237.16 58H4223.96L4219.93 46.2486H4195.63L4191.6 58H4179.29L4199.25 1.65778H4217.2L4237.16 58ZM4207.86 10.753L4199.25 35.8656H4216.39L4207.86 10.753ZM4256.76 58H4244.85V1.65778H4260.46L4282.68 43.673V1.65778H4294.59V58H4279.05L4256.76 15.8238V58ZM4333.53 58H4309.22V1.65778H4333.69C4342.49 1.65778 4349.12 4.04562 4353.57 8.82129C4358.03 13.5433 4360.25 20.6263 4360.25 30.0704C4360.25 39.4071 4358.03 46.4096 4353.57 51.078C4349.12 55.6927 4342.44 58 4333.53 58ZM4322.1 47.6169H4333.85C4338.57 47.6169 4341.95 46.2486 4343.99 43.512C4346.09 40.7217 4347.13 36.2412 4347.13 30.0704C4347.13 23.7386 4346.09 19.1507 4343.99 16.3068C4341.95 13.4628 4338.57 12.0408 4333.85 12.0408H4322.1V47.6169ZM4412.84 58H4388.53V1.65778H4413C4421.8 1.65778 4428.43 4.04562 4432.88 8.82129C4437.34 13.5433 4439.56 20.6263 4439.56 30.0704C4439.56 39.4071 4437.34 46.4096 4432.88 51.078C4428.43 55.6927 4421.75 58 4412.84 58ZM4401.41 47.6169H4413.16C4417.88 47.6169 4421.26 46.2486 4423.3 43.512C4425.4 40.7217 4426.44 36.2412 4426.44 30.0704C4426.44 23.7386 4425.4 19.1507 4423.3 16.3068C4421.26 13.4628 4417.88 12.0408 4413.16 12.0408H4401.41V47.6169ZM4493.84 58H4450.86V1.65778H4492.96V12.0408H4463.74V24.1947H4492.23V34.3363H4463.74V47.6169H4493.84V58ZM4525.79 58.8854C4517.16 58.8854 4510.82 57.2756 4506.8 54.056C4502.77 50.8365 4500.76 45.7389 4500.76 38.7632H4513.56C4513.61 42.573 4514.58 45.2828 4516.46 46.8925C4518.39 48.5023 4521.5 49.3072 4525.79 49.3072C4529.82 49.3072 4532.74 48.7706 4534.57 47.6974C4536.39 46.6242 4537.3 44.8535 4537.3 42.3852C4537.3 40.2924 4536.53 38.7363 4534.97 37.7168C4533.47 36.6973 4530.73 35.8924 4526.76 35.3021L4520.4 34.3363C4513.48 33.2631 4508.57 31.4923 4505.67 29.024C4502.83 26.5557 4501.41 22.7995 4501.41 17.7556C4501.41 12.2823 4503.42 8.09689 4507.44 5.19929C4511.52 2.24803 4517.42 0.772401 4525.15 0.772401C4533.58 0.772401 4539.67 2.24803 4543.42 5.19929C4547.23 8.15055 4549.14 12.8994 4549.14 19.4458H4536.5C4536.39 16.1189 4535.45 13.7579 4533.68 12.3628C4531.97 10.9677 4529.12 10.2701 4525.15 10.2701C4521.34 10.2701 4518.55 10.8067 4516.78 11.8799C4515.06 12.8994 4514.2 14.5628 4514.2 16.8702C4514.2 18.9092 4514.87 20.3849 4516.22 21.2971C4517.56 22.1556 4520.43 22.9068 4524.83 23.5508L4531.03 24.5166C4538.06 25.5898 4542.99 27.3874 4545.84 29.9094C4548.73 32.3777 4550.18 36.0534 4550.18 40.9364C4550.18 46.7852 4548.12 51.2389 4543.98 54.2975C4539.85 57.3561 4533.79 58.8854 4525.79 58.8854ZM4573.79 58H4560.91V1.65778H4573.79V58ZM4613.61 58.8854C4604.27 58.8854 4597.16 56.4171 4592.28 51.4804C4587.4 46.5437 4584.96 39.3266 4584.96 29.8289C4584.96 20.3312 4587.37 13.114 4592.2 8.17738C4597.08 3.24073 4604.19 0.772401 4613.53 0.772401C4621.58 0.772401 4627.83 2.56999 4632.28 6.16515C4636.74 9.76033 4639.18 14.9653 4639.61 21.78H4626.65C4626.38 18.0775 4625.17 15.3677 4623.03 13.6506C4620.94 11.9335 4617.77 11.075 4613.53 11.075C4608.38 11.075 4604.54 12.6311 4602.02 15.7433C4599.5 18.8019 4598.24 23.4971 4598.24 29.8289C4598.24 36.268 4599.47 41.0168 4601.94 44.0754C4604.46 47.0803 4608.35 48.5828 4613.61 48.5828C4618.06 48.5828 4621.45 47.7779 4623.75 46.1681C4626.11 44.5047 4627.29 42.09 4627.29 38.9241V37.5558H4610.87V27.7362H4639.77V36.7509C4639.77 43.673 4637.46 49.0926 4632.85 53.0097C4628.29 56.9268 4621.87 58.8854 4613.61 58.8854ZM4663.13 58H4651.22V1.65778H4666.84L4689.05 43.673V1.65778H4700.96V58H4685.43L4663.13 15.8238V58ZM4753.66 58.8854C4745.02 58.8854 4738.69 57.2756 4734.67 54.056C4730.64 50.8365 4728.63 45.7389 4728.63 38.7632H4741.43C4741.48 42.573 4742.45 45.2828 4744.33 46.8925C4746.26 48.5023 4749.37 49.3072 4753.66 49.3072C4757.69 49.3072 4760.61 48.7706 4762.44 47.6974C4764.26 46.6242 4765.17 44.8535 4765.17 42.3852C4765.17 40.2924 4764.39 38.7363 4762.84 37.7168C4761.34 36.6973 4758.6 35.8924 4754.63 35.3021L4748.27 34.3363C4741.35 33.2631 4736.44 31.4923 4733.54 29.024C4730.7 26.5557 4729.27 22.7995 4729.27 17.7556C4729.27 12.2823 4731.29 8.09689 4735.31 5.19929C4739.39 2.24803 4745.29 0.772401 4753.02 0.772401C4761.44 0.772401 4767.53 2.24803 4771.29 5.19929C4775.1 8.15055 4777 12.8994 4777 19.4458H4764.37C4764.26 16.1189 4763.32 13.7579 4761.55 12.3628C4759.83 10.9677 4756.99 10.2701 4753.02 10.2701C4749.21 10.2701 4746.42 10.8067 4744.65 11.8799C4742.93 12.8994 4742.07 14.5628 4742.07 16.8702C4742.07 18.9092 4742.74 20.3849 4744.08 21.2971C4745.43 22.1556 4748.3 22.9068 4752.7 23.5508L4758.89 24.5166C4765.92 25.5898 4770.86 27.3874 4773.7 29.9094C4776.6 32.3777 4778.05 36.0534 4778.05 40.9364C4778.05 46.7852 4775.99 51.2389 4771.85 54.2975C4767.72 57.3561 4761.66 58.8854 4753.66 58.8854ZM4812.92 58.8854C4803.8 58.8854 4796.91 56.4439 4792.24 51.5609C4787.62 46.6242 4785.31 39.3802 4785.31 29.8289C4785.31 20.2775 4787.65 13.0604 4792.32 8.17738C4796.99 3.24073 4803.85 0.772401 4812.92 0.772401C4820.97 0.772401 4827.22 2.73096 4831.68 6.64809C4836.18 10.5116 4838.63 16.1189 4839 23.4703H4825.88C4825.61 19.2312 4824.43 16.1189 4822.34 14.1336C4820.25 12.0945 4817.11 11.075 4812.92 11.075C4808.04 11.075 4804.42 12.6043 4802.06 15.6628C4799.75 18.7214 4798.6 23.4434 4798.6 29.8289C4798.6 36.2143 4799.75 40.9364 4802.06 43.9949C4804.42 47.0535 4808.04 48.5828 4812.92 48.5828C4817.11 48.5828 4820.27 47.5364 4822.42 45.4437C4824.62 43.351 4825.8 40.212 4825.96 36.0265H4839.08C4838.92 43.4315 4836.59 49.0926 4832.08 53.0097C4827.62 56.9268 4821.24 58.8854 4812.92 58.8854ZM4862.57 58H4849.69V1.65778H4862.57V23.8727H4887.44V1.65778H4900.32V58H4887.44V34.2558H4862.57V58ZM4968.46 29.8289C4968.46 39.3802 4966.04 46.6242 4961.21 51.5609C4956.38 56.4439 4949.3 58.8854 4939.96 58.8854C4930.63 58.8854 4923.54 56.4439 4918.72 51.5609C4913.89 46.6242 4911.47 39.3802 4911.47 29.8289C4911.47 20.3312 4913.89 13.114 4918.72 8.17738C4923.54 3.24073 4930.63 0.772401 4939.96 0.772401C4949.3 0.772401 4956.38 3.24073 4961.21 8.17738C4966.04 13.114 4968.46 20.3312 4968.46 29.8289ZM4924.75 29.8289C4924.75 36.2143 4925.99 40.9364 4928.45 43.9949C4930.98 47.0535 4934.81 48.5828 4939.96 48.5828C4945.17 48.5828 4949.01 47.0535 4951.47 43.9949C4954 40.9364 4955.26 36.2143 4955.26 29.8289C4955.26 23.4434 4954 18.7214 4951.47 15.6628C4949.01 12.6043 4945.17 11.075 4939.96 11.075C4934.81 11.075 4930.98 12.6043 4928.45 15.6628C4925.99 18.7214 4924.75 23.4434 4924.75 29.8289ZM5033.23 29.8289C5033.23 39.3802 5030.81 46.6242 5025.98 51.5609C5021.15 56.4439 5014.07 58.8854 5004.73 58.8854C4995.4 58.8854 4988.31 56.4439 4983.48 51.5609C4978.65 46.6242 4976.24 39.3802 4976.24 29.8289C4976.24 20.3312 4978.65 13.114 4983.48 8.17738C4988.31 3.24073 4995.4 0.772401 5004.73 0.772401C5014.07 0.772401 5021.15 3.24073 5025.98 8.17738C5030.81 13.114 5033.23 20.3312 5033.23 29.8289ZM4989.52 29.8289C4989.52 36.2143 4990.75 40.9364 4993.22 43.9949C4995.75 47.0535 4999.58 48.5828 5004.73 48.5828C5009.94 48.5828 5013.77 47.0535 5016.24 43.9949C5018.76 40.9364 5020.03 36.2143 5020.03 29.8289C5020.03 23.4434 5018.76 18.7214 5016.24 15.6628C5013.77 12.6043 5009.94 11.075 5004.73 11.075C4999.58 11.075 4995.75 12.6043 4993.22 15.6628C4990.75 18.7214 4989.52 23.4434 4989.52 29.8289ZM5085.68 58H5044.47V1.65778H5057.35V47.3755H5085.68V58ZM5134.8 58.8854C5125.68 58.8854 5118.78 56.4439 5114.11 51.5609C5109.5 46.6242 5107.19 39.3802 5107.19 29.8289C5107.19 20.2775 5109.53 13.0604 5114.19 8.17738C5118.86 3.24073 5125.73 0.772401 5134.8 0.772401C5142.85 0.772401 5149.1 2.73096 5153.55 6.64809C5158.06 10.5116 5160.5 16.1189 5160.88 23.4703H5147.76C5147.49 19.2312 5146.31 16.1189 5144.22 14.1336C5142.12 12.0945 5138.98 11.075 5134.8 11.075C5129.92 11.075 5126.29 12.6043 5123.93 15.6628C5121.63 18.7214 5120.47 23.4434 5120.47 29.8289C5120.47 36.2143 5121.63 40.9364 5123.93 43.9949C5126.29 47.0535 5129.92 48.5828 5134.8 48.5828C5138.98 48.5828 5142.15 47.5364 5144.3 45.4437C5146.5 43.351 5147.68 40.212 5147.84 36.0265H5160.96C5160.8 43.4315 5158.46 49.0926 5153.96 53.0097C5149.5 56.9268 5143.12 58.8854 5134.8 58.8854ZM5214.55 58H5171.57V1.65778H5213.67V12.0408H5184.45V24.1947H5212.94V34.3363H5184.45V47.6169H5214.55V58ZM5238.29 58H5225.41V1.65778H5256C5261.47 1.65778 5265.82 3.42853 5269.04 6.97005C5272.31 10.4579 5273.95 15.1531 5273.95 21.0556C5273.95 26.9045 5272.23 31.546 5268.8 34.9802C5265.41 38.4144 5260.85 40.1315 5255.11 40.1315H5238.29V58ZM5260.75 21.0556C5260.75 18.0507 5260.05 15.7702 5258.65 14.214C5257.31 12.6043 5255.33 11.7994 5252.7 11.7994H5238.29V29.9899H5252.7C5255.27 29.9899 5257.26 29.2386 5258.65 27.7362C5260.05 26.1801 5260.75 23.9532 5260.75 21.0556ZM5296.61 58H5283.74V1.65778H5324.14V12.0408H5296.61V58ZM5383.82 58H5371.02V15.0189L5348.89 58H5332.47V1.65778H5345.27V44.7998L5367.4 1.65778H5383.82V58ZM5441.48 58H5398.49V1.65778H5440.59V12.0408H5411.37V24.1947H5439.87V34.3363H5411.37V47.6169H5441.48V58ZM5465.22 58H5452.34V1.65778H5465.22V23.8727H5490.09V1.65778H5502.96V58H5490.09V34.2558H5465.22V58ZM5530.46 58H5517.58V1.65778H5530.46V23.7922H5541.89L5554.68 1.65778H5568.85L5553.15 28.1386L5569.17 58H5554.92L5542.29 34.4168H5530.46V58ZM5630.05 29.8289C5630.05 39.3802 5627.64 46.6242 5622.81 51.5609C5617.98 56.4439 5610.9 58.8854 5601.56 58.8854C5592.22 58.8854 5585.14 56.4439 5580.31 51.5609C5575.48 46.6242 5573.07 39.3802 5573.07 29.8289C5573.07 20.3312 5575.48 13.114 5580.31 8.17738C5585.14 3.24073 5592.22 0.772401 5601.56 0.772401C5610.9 0.772401 5617.98 3.24073 5622.81 8.17738C5627.64 13.114 5630.05 20.3312 5630.05 29.8289ZM5586.35 29.8289C5586.35 36.2143 5587.58 40.9364 5590.05 43.9949C5592.57 47.0535 5596.41 48.5828 5601.56 48.5828C5606.77 48.5828 5610.6 47.0535 5613.07 43.9949C5615.59 40.9364 5616.85 36.2143 5616.85 29.8289C5616.85 23.4434 5615.59 18.7214 5613.07 15.6628C5610.6 12.6043 5606.77 11.075 5601.56 11.075C5596.41 11.075 5592.57 12.6043 5590.05 15.6628C5587.58 18.7214 5586.35 23.4434 5586.35 29.8289Z" fill="#07FF00"/>
</svg>
