<svg width="2990" height="84" viewBox="0 0 2990 84" fill="none" xmlns="http://www.w3.org/2000/svg">
<path fill-rule="evenodd" clip-rule="evenodd" d="M854.093 83.5512L1281.66 83.5513V0L1190 0V46.6789L1141.39 46.6789V0L1039.03 82.368C1038.4 37.7892 1002.19 1.81613 957.519 1.56905V83.226L854.093 0V83.5512Z" fill="#07FF00"/>
<path fill-rule="evenodd" clip-rule="evenodd" d="M1281.04 83.5512L1708.61 83.5513V0L1616.95 0V46.6789L1568.34 46.6789V0L1465.98 82.368C1465.35 37.7892 1429.14 1.81613 1384.47 1.56905V83.226L1281.04 0V83.5512Z" fill="#07FF00"/>
<path fill-rule="evenodd" clip-rule="evenodd" d="M1708.12 83.5512L2135.68 83.5513V0L2044.02 0V46.6789L1995.41 46.6789V0L1893.05 82.368C1892.42 37.7892 1856.21 1.81613 1811.54 1.56905V83.226L1708.12 0V83.5512Z" fill="#07FF00"/>
<path fill-rule="evenodd" clip-rule="evenodd" d="M2135.21 83.5512L2562.77 83.5513V0L2471.11 0V46.6789L2422.5 46.6789V0L2320.14 82.368C2319.51 37.7892 2283.3 1.81613 2238.63 1.56905V83.226L2135.21 0V83.5512Z" fill="#07FF00"/>
<path fill-rule="evenodd" clip-rule="evenodd" d="M2562.27 83.5512L2989.83 83.5513V0L2898.17 0V46.6789L2849.57 46.6789V0L2747.21 82.368C2746.58 37.7892 2710.37 1.81613 2665.69 1.56905V83.226L2562.27 0V83.5512Z" fill="#07FF00"/>
<path fill-rule="evenodd" clip-rule="evenodd" d="M426.551 83.5512L854.114 83.5513V0L762.456 0V46.6789L713.848 46.6789V0L611.489 82.368C610.858 37.7892 574.647 1.81613 529.977 1.56905V83.226L426.551 0V83.5512Z" fill="#07FF00"/>
<path fill-rule="evenodd" clip-rule="evenodd" d="M-0.000976562 83.5512L427.562 83.5513V0L335.904 0V46.6789L287.297 46.6789V0L184.937 82.368C184.306 37.7892 148.095 1.81613 103.425 1.56905L103.425 83.226L-0.000976562 0L-0.000976562 83.5512Z" fill="#07FF00"/>
</svg>
