<svg width="856" height="865" viewBox="0 0 856 865" fill="none" xmlns="http://www.w3.org/2000/svg">
<rect y="0.676758" width="856" height="864.323" fill="#33FF00"/>
<ellipse cx="427.5" cy="447.103" rx="343.5" ry="362.952" fill="black"/>
<ellipse cx="45" cy="52.4519" rx="21" ry="22.1892" fill="black"/>
<path d="M45 49.9425L51.625 42.9424L54 45.4519L47.375 52.452L54 59.4522L51.625 61.9617L45 54.9615L38.375 61.9617L36 59.4522L42.625 52.452L36 45.4519L38.375 42.9424L45 49.9425Z" fill="#33FF00"/>
<ellipse cx="810" cy="52.4519" rx="21" ry="22.1892" fill="black"/>
<path d="M810 49.9425L816.625 42.9424L819 45.4519L812.375 52.452L819 59.4522L816.625 61.9617L810 54.9615L803.375 61.9617L801 59.4522L807.625 52.452L801 45.4519L803.375 42.9424L810 49.9425Z" fill="#33FF00"/>
<ellipse cx="810" cy="824.847" rx="21" ry="22.1892" fill="black"/>
<path d="M810 822.338L816.625 815.338L819 817.847L812.375 824.848L819 831.848L816.625 834.357L810 827.357L803.375 834.357L801 831.848L807.625 824.848L801 817.847L803.375 815.338L810 822.338Z" fill="#33FF00"/>
<ellipse cx="45" cy="824.847" rx="21" ry="22.1892" fill="black"/>
<path d="M45 822.338L51.625 815.338L54 817.847L47.375 824.848L54 831.848L51.625 834.357L45 827.357L38.375 834.357L36 831.848L42.625 824.848L36 817.847L38.375 815.338L45 822.338Z" fill="#33FF00"/>
<path d="M579.893 447.103C579.893 548.786 503.884 616.735 427.499 616.735C351.115 616.735 275.105 548.786 275.105 447.103C275.105 345.421 351.115 277.472 427.499 277.472C503.884 277.472 579.893 345.421 579.893 447.103Z" stroke="#33FF00" stroke-width="304"/>
</svg>
